#!OML:ASF H:\MichaelJackson\Top Level 1\Subject 1\Session 1\male.ASF
:FULLY-SPECIFIED
:DEGREES
1087
root 25.7226 16.5061 18.4695 -183.527 -52.4229 -167.412
lowerback -3.80175 2.69896 4.67708
upperback -2.64781 3.27454 3.65529
thorax -0.545316 1.52463 1.25195
lowerneck -7.67144 0.457635 4.62481
upperneck 6.33358 0.190812 -1.22473
head 3.42835 0.155891 -1.21272
rclavicle -1.55797e-014 2.26615e-014
rhumerus -223.484 180.623 -247.59
rradius 74.041
rwrist -26.7179
rhand -2.60178 -17.7903
rfingers 7.12502
rthumb 23.0961 -406.426
lclavicle -1.55797e-014 2.26615e-014
lhumerus -54.6891 -20.3368 101.82
lradius 61.5807
lwrist 11.1109
lhand 13.853 23.5875
lfingers 7.12502
lthumb 38.7709 49.1727
rfemur -12.4687 -22.8191 22.9669
rtibia 51.4988
rfoot -4.84848 -19.5865
rtoes -34.1532
lfemur -34.3413 26.7359 -18.5451
ltibia 49.8404
lfoot -24.3337 13.7871
ltoes 42.7289
1088
root 25.6251 16.5379 18.4955 -184.018 -54.6694 -167.604
lowerback -3.75656 2.53676 4.29495
upperback -2.6833 3.09091 3.4986
thorax -0.62027 1.44249 1.29241
lowerneck -7.87336 0.36716 4.60333
upperneck 6.81016 0.0516216 -1.15938
head 3.62928 0.0939901 -1.1997
rclavicle 3.01097e-014 1.98785e-014
rhumerus -224.088 181.47 -246.598
rradius 74.191
rwrist -28.9763
rhand -0.444943 -17.6585
rfingers 7.12502
rthumb 25.1641 -406.02
lclavicle 3.01097e-014 1.98785e-014
lhumerus -54.9311 -19.9655 102.163
lradius 62.2704
lwrist 11.109
lhand 13.6098 24.1186
lfingers 7.12502
lthumb 38.5415 49.7685
rfemur -14.2159 -21.7932 21.451
rtibia 55.8634
rfoot 0.81636 -15.8656
rtoes -33.3994
lfemur -32.9192 24.734 -18.9587
ltibia 48.6431
lfoot -24.3277 13.3931
ltoes 43.3371
1089
root 25.5352 16.5679 18.5227 -184.323 -56.8711 -167.989
lowerback -3.63882 2.37428 3.80849
upperback -2.68761 2.91506 3.30396
thorax -0.705269 1.36696 1.35053
lowerneck -8.1099 0.282748 4.53857
upperneck 7.21651 -0.0771531 -1.07998
head 3.81409 0.0361972 -1.17367
rclavicle -9.60378e-014 -7.55382e-015
rhumerus -224.707 182.141 -245.68
rradius 74.2828
rwrist -30.2795
rhand 1.13737 -17.3445
rfingers 7.12502
rthumb 26.6793 -405.484
lclavicle -9.60378e-014 -7.55382e-015
lhumerus -55.2085 -19.7021 102.495
lradius 63.0456
lwrist 10.9992
lhand 13.3541 24.4897
lfingers 7.12502
lthumb 38.3002 50.2066
rfemur -16.1961 -20.2236 19.7507
rtibia 60.4558
rfoot 6.35251 -10.6235
rtoes -32.4571
lfemur -31.567 22.8379 -19.534
ltibia 47.4557
lfoot -24.1742 13.1352
ltoes 43.6811
1090
root 25.4538 16.594 18.5499 -184.442 -59.0001 -168.565
lowerback -3.44167 2.22373 3.23848
upperback -2.65532 2.76016 3.07914
thorax -0.797687 1.30398 1.42365
lowerneck -8.33314 0.205808 4.4566
upperneck 7.4993 -0.1895 -1.0231
head 3.95445 -0.0160082 -1.15031
rclavicle 3.45513e-014 1.07344e-014
rhumerus -225.341 182.64 -244.847
rradius 74.3662
rwrist -30.6631
rhand 2.06387 -16.8739
rfingers 7.12502
rthumb 27.5657 -404.875
lclavicle 3.45513e-014 1.07344e-014
lhumerus -55.5239 -19.5838 102.827
lradius 63.9051
lwrist 10.8179
lhand 13.1113 24.6668
lfingers 7.12502
lthumb 38.0709 50.4466
rfemur -18.3607 -18.2017 17.8774
rtibia 65.219
rfoot 11.5644 -4.15444
rtoes -30.5865
lfemur -30.2768 21.1029 -20.2299
ltibia 46.307
lfoot -23.9194 12.9449
ltoes 43.8356
1091
root 25.3812 16.6141 18.5741 -184.466 -61.0505 -169.262
lowerback -3.14901 2.08834 2.61244
upperback -2.56972 2.6269 2.85185
thorax -0.889611 1.25324 1.52509
lowerneck -8.50415 0.132527 4.33064
upperneck 7.61992 -0.284347 -0.986297
head 4.02773 -0.0633095 -1.12317
rclavicle -3.0998e-014 1.78906e-014
rhumerus -225.987 182.986 -244.086
rradius 74.4856
rwrist -30.1472
rhand 2.36703 -16.3319
rfingers 7.12502
rthumb 27.8555 -404.287
lclavicle -3.0998e-014 1.78906e-014
lhumerus -55.8559 -19.6303 103.172
lradius 64.8292
lwrist 10.6056
lhand 12.9526 24.6468
lfingers 7.12502
lthumb 37.9211 50.4674
rfemur -20.6179 -15.8543 15.8895
rtibia 70.1102
rfoot 16.1127 2.87479
rtoes -28.0497
lfemur -29.0081 19.5928 -20.9566
ltibia 45.2224
lfoot -23.585 12.7275
ltoes 43.8393
